# xmcd CD database file
#
# Track frame offsets:
#	150
#	10162
#	17135
#	19638
#	31688
#	38334
#	43655
#	50834
#	57353
#	62383
#	78163
#	91691
#	95777
#	103968
#	112376
#	126928
#	145366
#	155378
#	168906
#
# Disc length: 2382 seconds
#
# Revision: 0
# Processed by: cddbd v1.5.1PL2 Copyright (c) Steve Scherf et al.
# Submitted via: CDex 1.50
#
DISCID=f2094c13
DTITLE=Carlo Rustichelli - Sei Donne Per L'Assassino (Blood And Black Lace Soundtrack)
DYEAR=1964
DGENRE=Jazz
TTITLE0=Atelier (Titoli)
TTITLE1=Inseguimento e morte di Isabella
TTITLE2=Nascondendo il cadavere
TTITLE3=Atelier (Ripresa)
TTITLE4=Brutale aggressione
TTITLE5=L' indagine continua
TTITLE6=Terrore nella casa di moda
TTITLE7=Sospetti
TTITLE8=Attesa ossessiva
TTITLE9=Il killer colpisce ancora
TTITLE10=Defilé
TTITLE11=Assassinio
TTITLE12=Nuovi sospetti
TTITLE13=Attacco notturno
TTITLE14=Verso la verità
TTITLE15=Il volto dell' assassino (Finale)
TTITLE16=Atelier (Single Side A In Mono)
TTITLE17=Defilé (Single Side B In Mono)
TTITLE18=Atelier (Alternate Version)
EXTD=YEAR: 1964
EXTT0=
EXTT1=
EXTT2=
EXTT3=
EXTT4=
EXTT5=
EXTT6=
EXTT7=
EXTT8=
EXTT9=
EXTT10=
EXTT11=
EXTT12=
EXTT13=
EXTT14=
EXTT15=
EXTT16=
EXTT17=
EXTT18=
PLAYORDER=
